<svg xmlns="http://www.w3.org/2000/svg" version="1.1" xmlns:xlink="http://www.w3.org/1999/xlink" xmlns:svgjs="http://svgjs.dev/svgjs" viewBox="0 0 800 800" opacity="0.28"><defs><symbol id="bbburst-shape-1" viewBox="0 0 194 167"><path d="m97 0 96.129 166.5H.871L97 0Z"></path></symbol><symbol id="bbburst-shape-2" viewBox="0 0 126 115"><path d="m63 0 62.77 43.877-23.976 70.996H24.206L.23 43.877 63 0Z"></path></symbol><symbol id="bbburst-shape-3" viewBox="0 0 131 127"><path d="m66 0 66 63.5L66 127 0 63.5 66 0Z"></path></symbol><symbol id="bbburst-shape-5" viewBox="0 0 145 145"><circle cx="72.5" cy="72.5" r="72.5"></circle></symbol><symbol id="bbburst-shape-9" viewBox="0 0 182 172"><path d="M13.5809 69.845 91 13.5967l77.419 56.2483-29.571 91.012H43.1524L13.5809 69.845Z" stroke-width="22"></path></symbol><symbol id="bbburst-shape-10" viewBox="0 0 145 145"><circle cx="72.5" cy="72.5" r="61.5" fill="none" stroke-width="22"></circle></symbol><symbol id="bbburst-shape-11" viewBox="0 0 194 167"><path d="M10.398 161 97 11l86.603 150H10.397Z" stroke-width="11"></path></symbol><symbol id="bbburst-shape-13" viewBox="0 0 159 159"><path stroke-width="22" d="M11 11h137v137H11z"></path></symbol></defs><use xlink:href="#bbburst-shape-11" width="12.405377449658882" opacity="0.903037595487409" transform="matrix(0.995610891225276,0.09358927969383857,-0.09358927969383857,0.995610891225276,735.7706837803886,384.2649810667354)" fill="none" stroke="#ffa6d5"></use><use xlink:href="#bbburst-shape-9" width="18.318541774986567" opacity="0.65888399301359" transform="matrix(0.9696001027872311,0.24469499519808502,-0.24469499519808502,0.9696001027872311,555.5186881649977,338.1605823710855)" fill="none" stroke="#ff5c58"></use><use xlink:href="#bbburst-shape-13" width="43.72449703372808" opacity="0.43920886265049697" transform="matrix(0.7833628107630165,-0.6215647244764348,0.6215647244764348,0.7833628107630165,159.16190018764672,83.35389754618893)" fill="none" stroke="#ffbd9b"></use><use xlink:href="#bbburst-shape-5" width="58.293113648342114" opacity="0.06615401985765268" transform="matrix(0.9449505265907183,-0.3272132367370309,0.3272132367370309,0.9449505265907183,70.62918654259852,-307.4233623786482)" fill="#2c2891"></use><use xlink:href="#bbburst-shape-5" width="15.042262466731746" opacity="0.9166599607405643" transform="matrix(0.864534781121541,-0.5025729919435874,0.5025729919435874,0.864534781121541,532.8758997869132,399.7055367233607)" fill="#00a19d"></use><use xlink:href="#bbburst-shape-1" width="59.446081459286155" opacity="0.13680855080422194" transform="matrix(0.9833121148571214,0.18192659172098857,-0.18192659172098857,0.9833121148571214,160.54270214701296,-126.50945805488868)" fill="#00a19d"></use><use xlink:href="#bbburst-shape-13" width="35.48788962452054" opacity="0.20133353731704529" transform="matrix(0.8517638504759055,-0.5239258945905034,0.5239258945905034,0.8517638504759055,293.0435714568796,-278.5304359427173)" fill="none" stroke="#00a19d"></use><use xlink:href="#bbburst-shape-9" width="18.58908884273021" opacity="0.8614599463375512" transform="matrix(0.8817947065089583,0.47163343347644493,-0.47163343347644493,0.8817947065089583,919.9453847302425,318.19074290929393)" fill="none" stroke="#00a19d"></use><use xlink:href="#bbburst-shape-11" width="82.67410824051468" opacity="-0.006560916031830288" transform="matrix(0.7993324479179681,0.6008890394286359,-0.6008890394286359,0.7993324479179681,281.28449306176776,-241.92673286333144)" fill="none" stroke="#00a19d"></use><use xlink:href="#bbburst-shape-1" width="20.027119674334315" opacity="0.6649540344195681" transform="matrix(0.8529415966651561,0.5220063531014677,-0.5220063531014677,0.8529415966651561,665.8966091618754,432.0571595005072)" fill="#2c2891"></use><use xlink:href="#bbburst-shape-13" width="9.06983556143036" opacity="0.9786994726957757" transform="matrix(0.9998200000926729,0.018972807243198452,-0.018972807243198452,0.9998200000926729,790.9677954625415,382.44710309549185)" fill="none" stroke="#ffa6d5"></use><use xlink:href="#bbburst-shape-11" width="19.59959511882828" opacity="0.8071470910908445" transform="matrix(0.9522239457394267,-0.3054006502292315,0.3054006502292315,0.9522239457394267,529.2479023395009,288.37004077527394)" fill="none" stroke="#00a19d"></use><use xlink:href="#bbburst-shape-1" width="31.81047771840719" opacity="0.676787933717456" transform="matrix(0.752972753601326,0.6580516942718383,-0.6580516942718383,0.752972753601326,1018.9304741088448,166.77990270564413)" fill="#00a19d"></use><use xlink:href="#bbburst-shape-9" width="61.778733938473295" opacity="0.32829683253621145" transform="matrix(0.9522658544985139,0.3052699499725041,-0.3052699499725041,0.9522658544985139,376.53452558417587,-20.42331789472877)" fill="none" stroke="#2c2891"></use><use xlink:href="#bbburst-shape-5" width="14.829784316700206" opacity="0.8324562343419927" transform="matrix(0.9453689570948606,-0.3260023542267382,0.3260023542267382,0.9453689570948606,495.9017791300771,407.35215466312127)" fill="#00a19d"></use><use xlink:href="#bbburst-shape-1" width="34.751399759232655" opacity="0.5726940531952743" transform="matrix(0.8924267943124219,0.45119221712398166,-0.45119221712398166,0.8924267943124219,807.7128362056069,37.90491460093841)" fill="#ff5c58"></use><use xlink:href="#bbburst-shape-9" width="15.761316770749069" opacity="0.7572694602987506" transform="matrix(0.8553366300182246,0.5180726294150915,-0.5180726294150915,0.8553366300182246,760.712553351838,416.2853526402969)" fill="none" stroke="#2c2891"></use><use xlink:href="#bbburst-shape-3" width="45.169859899962645" opacity="0.42900990133889516" transform="matrix(0.9336803522555996,0.3581075254890064,-0.3581075254890064,0.9336803522555996,640.9267324666621,-78.64321714787724)" fill="#00a19d"></use><use xlink:href="#bbburst-shape-11" width="13.836668316309888" opacity="0.8392603729457121" transform="matrix(0.8106260483726978,0.5855641806836076,-0.5855641806836076,0.8106260483726978,876.9660696567473,418.56901119652986)" fill="none" stroke="#00a19d"></use><use xlink:href="#bbburst-shape-5" width="50.057577524398624" opacity="0.48219791646109866" transform="matrix(0.9640418967907509,0.26575029864911015,-0.26575029864911015,0.9640418967907509,387.83480184259906,253.62013115947815)" fill="#00a19d"></use><use xlink:href="#bbburst-shape-11" width="18.232113920499216" opacity="0.7511177381490612" transform="matrix(0.8500103485257361,0.5267659892202197,-0.5267659892202197,0.8500103485257361,776.1706665891742,352.7498678489143)" fill="none" stroke="#ffbd9b"></use><use xlink:href="#bbburst-shape-5" width="44.05866459796774" opacity="0.3363054953459912" transform="matrix(0.912005095189385,-0.4101788711630584,0.4101788711630584,0.912005095189385,-44.33164459273158,375.91848243875603)" fill="#2c2891"></use><use xlink:href="#bbburst-shape-11" width="27.682509129173514" opacity="0.748792811547143" transform="matrix(0.9159264496033678,-0.40134615846793575,0.40134615846793575,0.9159264496033678,475.6773592198107,238.07164193571924)" fill="none" stroke="#00a19d"></use><use xlink:href="#bbburst-shape-3" width="48.73725558255118" opacity="0.36451439535939567" transform="matrix(0.9722638147407273,-0.23388688408247396,0.23388688408247396,0.9722638147407273,77.2696046805907,223.3138134730077)" fill="#2c2891"></use><use xlink:href="#bbburst-shape-2" width="34.436710482623134" opacity="0.7082816607457199" transform="matrix(0.8049736270993143,-0.593310592922943,0.593310592922943,0.8049736270993143,428.03522427911673,222.70458184565513)" fill="#ff5c58"></use><use xlink:href="#bbburst-shape-3" width="33.097413834892954" opacity="0.23087422415761782" transform="matrix(0.844492092213546,-0.5355680219998087,0.5355680219998087,0.844492092213546,479.2543744125861,-292.41711157771476)" fill="#ffa6d5"></use><use xlink:href="#bbburst-shape-5" width="54.54495050284404" opacity="0.31314500386257316" transform="matrix(0.8534403590468332,-0.5211905155986747,0.5211905155986747,0.8534403590468332,259.3216815178868,-140.62273566666573)" fill="#ffbd9b"></use><use xlink:href="#bbburst-shape-11" width="36.67492191532142" opacity="0.546661975058255" transform="matrix(0.9600231628563353,-0.27992057226884637,0.27992057226884637,0.9600231628563353,266.57055108960543,214.46177436081143)" fill="none" stroke="#ffa6d5"></use><use xlink:href="#bbburst-shape-11" width="31.970265330019885" opacity="0.6996260569842132" transform="matrix(0.9036215123050287,0.42833183689701704,-0.42833183689701704,0.9036215123050287,713.9507116442483,254.92324837056975)" fill="none" stroke="#ff5c58"></use><use xlink:href="#bbburst-shape-11" width="14.390337426482306" opacity="0.9018271806531719" transform="matrix(0.9940595949660866,0.10883713362570603,-0.10883713362570603,0.9940595949660866,819.2724239832103,304.74198443296217)" fill="none" stroke="#ffa6d5"></use><use xlink:href="#bbburst-shape-9" width="55.671209981965234" opacity="0.28987541990935595" transform="matrix(0.9525879686758547,0.30426331020024233,-0.30426331020024233,0.9525879686758547,274.7455839949773,64.9067717962036)" fill="none" stroke="#ff5c58"></use><use xlink:href="#bbburst-shape-9" width="0.07888712966302976" opacity="0.6991437720120863" transform="matrix(0.9999865667987685,0.005183263644850963,-0.005183263644850963,0.9999865667987685,501.17764763431114,399.9255545121862)" fill="none" stroke="#00a19d"></use><use xlink:href="#bbburst-shape-5" width="45.708035711918356" opacity="0.40969727321104144" transform="matrix(0.8482624366686045,0.5295760932453822,-0.5295760932453822,0.8482624366686045,928.936205752861,-138.2844166649492)" fill="#00a19d"></use><use xlink:href="#bbburst-shape-11" width="14.23050622276806" opacity="0.8709284488980958" transform="matrix(0.9083534314986571,-0.4182033518333089,0.4182033518333089,0.9083534314986571,498.8768065498408,418.168189175926)" fill="none" stroke="#00a19d"></use><use xlink:href="#bbburst-shape-3" width="37.585909614025766" opacity="0.49846421833132315" transform="matrix(0.9356284546303941,0.3529863947603938,-0.3529863947603938,0.9356284546303941,774.3964906083783,-59.802157569477345)" fill="#ffbd9b"></use><use xlink:href="#bbburst-shape-13" width="48.244072960419665" opacity="0.432420225998264" transform="matrix(0.9956596625316458,0.09306898735545104,-0.09306898735545104,0.9956596625316458,248.83959581169847,339.2203053398681)" fill="none" stroke="#ffbd9b"></use><use xlink:href="#bbburst-shape-2" width="15.104808619038675" opacity="0.7168686995278326" transform="matrix(0.9840292676304988,0.17800674269977587,-0.17800674269977587,0.9840292676304988,582.372234505509,373.76436284434385)" fill="#ff5c58"></use><use xlink:href="#bbburst-shape-11" width="13.022270447294712" opacity="0.9492747275585679" transform="matrix(0.747724388183309,0.6640092162883706,-0.6640092162883706,0.747724388183309,1027.3817372966255,458.34099099511104)" fill="none" stroke="#ff5c58"></use><use xlink:href="#bbburst-shape-2" width="34.750189338171886" opacity="0.5024410928917343" transform="matrix(0.937415443854931,-0.34821298887643837,0.34821298887643837,0.937415443854931,597.4553822116302,-64.23573424203875)" fill="#ffbd9b"></use><use xlink:href="#bbburst-shape-9" width="32.529302480630356" opacity="0.573830454243058" transform="matrix(0.7434060702457443,0.6688403506979669,-0.6688403506979669,0.7434060702457443,769.5249299498415,175.70632120791925)" fill="none" stroke="#ff5c58"></use><use xlink:href="#bbburst-shape-9" width="18.93745174048473" opacity="0.8260465870825947" transform="matrix(0.9976133275546138,0.06904816207120008,-0.06904816207120008,0.9976133275546138,766.6948343328938,234.01435267422443)" fill="none" stroke="#ff5c58"></use><use xlink:href="#bbburst-shape-5" width="14.738087130354781" opacity="0.8978699229345242" transform="matrix(0.9723995385730567,-0.2333219607814626,0.2333219607814626,0.9723995385730567,648.3994319913223,324.3360373110905)" fill="#ffa6d5"></use><use xlink:href="#bbburst-shape-2" width="22.460224200855304" opacity="0.7581579694608761" transform="matrix(0.9907292250486585,0.1358513990891689,-0.1358513990891689,0.9907292250486585,654.863650595731,250.49657930596726)" fill="#ffa6d5"></use><use xlink:href="#bbburst-shape-11" width="30.070278359193946" opacity="0.5201579739329065" transform="matrix(0.74931906197635,0.6622091386857198,-0.6622091386857198,0.74931906197635,576.087847655816,445.6564190597911)" fill="none" stroke="#ffa6d5"></use><use xlink:href="#bbburst-shape-1" width="55.53674225387731" opacity="0.29009584202343286" transform="matrix(0.9691769588292076,0.24636562762400216,-0.24636562762400216,0.9691769588292076,689.6689056843682,-280.6343326878867)" fill="#ff5c58"></use><use xlink:href="#bbburst-shape-9" width="32.48676978584102" opacity="0.6773098976821131" transform="matrix(0.9922283268645415,0.12443049211343826,-0.12443049211343826,0.9922283268645415,620.7015288700375,158.44889687224605)" fill="none" stroke="#00a19d"></use><use xlink:href="#bbburst-shape-11" width="27.647330161280944" opacity="0.7412235117903847" transform="matrix(0.9867419978212466,-0.16229673359539626,0.16229673359539626,0.9867419978212466,682.7261277230293,151.32234313459702)" fill="none" stroke="#ffa6d5"></use><use xlink:href="#bbburst-shape-13" width="44.650224728218134" opacity="0.3996352796614613" transform="matrix(0.9808143456838281,0.19494414405363442,-0.19494414405363442,0.9808143456838281,675.5355666492115,-169.2520618276905)" fill="none" stroke="#2c2891"></use><use xlink:href="#bbburst-shape-1" width="70.99660171042945" opacity="0.17201524036896598" transform="matrix(0.9924584308849114,-0.12258165835662162,0.12258165835662162,0.9924584308849114,294.67754513595673,-305.46362523350285)" fill="#2c2891"></use><use xlink:href="#bbburst-shape-2" width="19.01582156512045" opacity="0.8621393071581254" transform="matrix(0.8728159264728295,0.48804954512362414,-0.48804954512362414,0.8728159264728295,893.3102842355349,345.03174558562887)" fill="#00a19d"></use><use xlink:href="#bbburst-shape-11" width="26.020626629813098" opacity="0.7026720500945904" transform="matrix(0.9999996896564451,0.0007878369204932803,-0.0007878369204932803,0.9999996896564451,508.5710633009351,296.1594025910702)" fill="none" stroke="#00a19d"></use><use xlink:href="#bbburst-shape-13" width="10.612618243676325" opacity="0.9381685442376297" transform="matrix(0.9582277074225908,-0.28600639980190257,0.28600639980190257,0.9582277074225908,664.8080451420483,358.4227927928042)" fill="none" stroke="#ffbd9b"></use><use xlink:href="#bbburst-shape-11" width="25.937441889995462" opacity="0.5710741562894408" transform="matrix(0.8595633501285346,0.511029203779794,-0.511029203779794,0.8595633501285346,577.8843354622331,342.9821968014995)" fill="none" stroke="#ff5c58"></use><use xlink:href="#bbburst-shape-5" width="32.66919403426645" opacity="0.5272324042097893" transform="matrix(0.9951903313039729,-0.09796021885994612,0.09796021885994612,0.9951903313039729,490.6556828894464,4.723481510156432)" fill="#ff5c58"></use><use xlink:href="#bbburst-shape-11" width="14.274910044686024" opacity="0.7955945121327046" transform="matrix(0.8824441037974614,0.47041726549213214,-0.47041726549213214,0.8824441037974614,780.0012593946169,411.93865807807134)" fill="none" stroke="#00a19d"></use><use xlink:href="#bbburst-shape-10" width="34.69080189458511" opacity="0.3160826842090687" transform="matrix(0.9258526612356258,-0.37788470421930204,0.37788470421930204,0.9258526612356258,581.9677764262681,-245.81312926285375)" fill="none" stroke="#ffa6d5"></use><use xlink:href="#bbburst-shape-13" width="59.64032547934872" opacity="0.14962829031500935" transform="matrix(0.7594878956492023,-0.6505214342067035,0.6505214342067035,0.7594878956492023,-226.16071489670512,102.52835925408897)" fill="none" stroke="#2c2891"></use><use xlink:href="#bbburst-shape-5" width="30.332690939184396" opacity="0.6462718625322463" transform="matrix(0.7190140886026872,0.6949954966694727,-0.6949954966694727,0.7190140886026872,757.1439848812017,331.3986397019324)" fill="#2c2891"></use><use xlink:href="#bbburst-shape-1" width="17.4043102901063" opacity="0.8594170421727793" transform="matrix(0.9680219849469349,-0.25086537556904137,0.25086537556904137,0.9680219849469349,673.5760352052646,275.5266083861964)" fill="#2c2891"></use><use xlink:href="#bbburst-shape-13" width="11.474044881402929" opacity="0.9282972532603072" transform="matrix(0.756355600778807,-0.6541606875764775,0.6541606875764775,0.756355600778807,466.05933542001253,478.2798307116671)" fill="none" stroke="#00a19d"></use><use xlink:href="#bbburst-shape-10" width="33.7538017926625" opacity="0.5900725749307396" transform="matrix(0.8966921738867905,-0.4426546569168587,0.4426546569168587,0.8966921738867905,559.1153460812388,41.76817321516921)" fill="none" stroke="#ffa6d5"></use><use xlink:href="#bbburst-shape-3" width="35.09945962376324" opacity="0.4955098001136744" transform="matrix(0.9630640518284764,-0.26927241239257615,0.26927241239257615,0.9630640518284764,279.2039582134248,107.04677023629569)" fill="#ffa6d5"></use><use xlink:href="#bbburst-shape-3" width="17.914449057996023" opacity="0.8412040586803542" transform="matrix(0.9527171008740764,-0.30385872655248053,0.30385872655248053,0.9527171008740764,537.3512962848616,334.14447836189777)" fill="#ffa6d5"></use><use xlink:href="#bbburst-shape-1" width="19.25406097446954" opacity="0.7984018527856163" transform="matrix(0.762906003588512,-0.646509419644142,0.646509419644142,0.762906003588512,352.6686914902137,413.1248412297772)" fill="#2c2891"></use><use xlink:href="#bbburst-shape-9" width="23.211392108202478" opacity="0.6242728247462476" transform="matrix(0.7995256917428308,0.6006318907976397,-0.6006318907976397,0.7995256917428308,678.5701271834175,343.030879062649)" fill="none" stroke="#2c2891"></use><use xlink:href="#bbburst-shape-1" width="32.99181046720264" opacity="0.6321095456483048" transform="matrix(0.7876061528863517,-0.6161789901770107,0.6161789901770107,0.7876061528863517,352.260777780182,179.10811968189097)" fill="#2c2891"></use><use xlink:href="#bbburst-shape-5" width="21.43024598446525" opacity="0.7990494408395996" transform="matrix(0.9770804793685629,0.21287023473679761,-0.21287023473679761,0.9770804793685629,852.3482037105264,207.18089448285372)" fill="#ffbd9b"></use><use xlink:href="#bbburst-shape-3" width="55.106397010745255" opacity="0.2269958306108052" transform="matrix(0.7672133795254978,-0.641391947468211,0.641391947468211,0.7672133795254978,-210.69914321212065,264.998544513926)" fill="#00a19d"></use><use xlink:href="#bbburst-shape-9" width="43.42175629357706" opacity="0.2421674725100339" transform="matrix(0.7112336882815579,0.7029556462917215,-0.7029556462917215,0.7112336882815579,313.22326571332354,412.18508836447484)" fill="none" stroke="#00a19d"></use><use xlink:href="#bbburst-shape-5" width="53.27288712768606" opacity="0.18295882756757453" transform="matrix(0.8273776226041638,0.5616460358748042,-0.5616460358748042,0.8273776226041638,447.1318015152111,-145.0683180102145)" fill="#ff5c58"></use><use xlink:href="#bbburst-shape-3" width="17.171218853858594" opacity="0.8133906338192834" transform="matrix(0.9756031325698206,0.21954163094946974,-0.21954163094946974,0.9756031325698206,779.70750009689,250.09656595353954)" fill="#ff5c58"></use><use xlink:href="#bbburst-shape-13" width="15.989591334164748" opacity="0.885998946121087" transform="matrix(0.9895401817331309,-0.14425750842005536,0.14425750842005536,0.9895401817331309,635.5775638833676,348.476278138144)" fill="none" stroke="#00a19d"></use><use xlink:href="#bbburst-shape-10" width="10.015266951711482" opacity="0.9563496324050368" transform="matrix(0.9744911861473673,-0.22442577419070445,0.22442577419070445,0.9744911861473673,663.2674793139471,399.73277807010714)" fill="none" stroke="#00a19d"></use><use xlink:href="#bbburst-shape-13" width="59.02736941791396" opacity="0.42570589840449924" transform="matrix(0.9640327731682775,0.26578339349455316,-0.26578339349455316,0.9640327731682775,376.2180974774283,126.95735614782535)" fill="none" stroke="#2c2891"></use><use xlink:href="#bbburst-shape-13" width="55.43270992199207" opacity="0.3096266796802021" transform="matrix(0.9064656794963164,0.4222794949974262,-0.4222794949974262,0.9064656794963164,516.6975988597021,-116.70087590347634)" fill="none" stroke="#00a19d"></use><use xlink:href="#bbburst-shape-5" width="27.88707200481694" opacity="0.6000550445427189" transform="matrix(0.9668730183276842,0.25525784303310567,-0.25525784303310567,0.9668730183276842,490.02523118485135,376.87412725058743)" fill="#ff5c58"></use><use xlink:href="#bbburst-shape-10" width="27.52965260957485" opacity="0.6082555220568945" transform="matrix(0.9079956738951183,0.4189795414906914,-0.4189795414906914,0.9079956738951183,645.4502769520843,191.06604856944716)" fill="none" stroke="#00a19d"></use><use xlink:href="#bbburst-shape-1" width="35.594881374778" opacity="0.6475338872321736" transform="matrix(0.733715290351945,0.6794570425742609,-0.6794570425742609,0.733715290351945,957.0728083385382,156.95587145494483)" fill="#ffa6d5"></use><use xlink:href="#bbburst-shape-11" width="23.966304539428844" opacity="0.7722923214893084" transform="matrix(0.993749466660399,0.11163331721387061,-0.11163331721387061,0.993749466660399,747.5321397418501,189.70714409927763)" fill="none" stroke="#2c2891"></use></svg>